REM MD5 e19f4757ccf518fe9cff221bbffcac2e
FILE "Uno (Japan).bin" BINARY
  TRACK 01 MODE2/2352
    INDEX 01 00:00:00
  TRACK 02 AUDIO
    INDEX 00 06:52:29
    INDEX 01 06:54:29
  TRACK 03 AUDIO
    INDEX 00 09:10:64
    INDEX 01 09:12:64
  TRACK 04 AUDIO
    INDEX 00 09:17:63
    INDEX 01 09:19:63
  TRACK 05 AUDIO
    INDEX 00 09:36:74
    INDEX 01 09:38:74
REM LEADOUT 13:03:74
